<svg width="510" height="530" viewBox="0 0 510 530" fill="none" xmlns="http://www.w3.org/2000/svg">
<path d="M95.485 146.472C121.611 119.294 160.544 110.509 202.435 118.359C244.325 126.209 289.124 150.691 326.879 189.966C364.635 229.241 388.169 275.842 395.715 319.418C403.262 362.995 394.816 403.494 368.69 430.672C342.564 457.85 303.631 466.636 261.739 458.786C219.85 450.936 175.051 426.454 137.296 387.179C99.5403 347.904 76.0056 301.303 68.4591 257.727C60.9123 214.15 69.3586 173.65 95.485 146.472Z" stroke="#EBECF0"/>
<path d="M118.145 122.9C144.272 95.7221 183.204 86.9364 225.096 94.7868C266.985 102.637 311.784 127.119 349.54 166.394C387.295 205.669 410.829 252.27 418.376 295.845C425.922 339.423 417.477 379.922 391.35 407.1C365.224 434.278 326.291 443.064 284.399 435.213C242.51 427.363 197.712 402.882 159.956 363.607C122.201 324.332 98.666 277.73 91.1195 234.155C83.5727 190.577 92.019 150.078 118.145 122.9Z" stroke="#EBECF0"/>
<path d="M140.806 99.3274C166.932 72.1498 205.865 63.3641 247.756 71.2146C289.646 79.0647 334.444 103.547 372.2 142.822C409.955 182.097 433.49 228.698 441.036 272.273C448.583 315.85 440.137 356.35 414.011 383.528C387.884 410.705 348.951 419.492 307.06 411.641C265.17 403.791 220.372 379.31 182.617 340.035C144.861 300.76 121.326 254.158 113.78 210.583C106.233 167.005 114.679 126.505 140.806 99.3274Z" stroke="#EBECF0"/>
</svg>
